<svg version="1.1" xmlns="http://www.w3.org/2000/svg" xmlns:xlink="http://www.w3.org/1999/xlink" width="316.76085" height="93.70976" viewBox="0,0,316.76085,93.70976"><g transform="translate(-161.76856,-8.29657)"><g stroke="none" stroke-miterlimit="10"><text transform="translate(162.92973,92.98493) scale(0.89321,0.89321)" font-size="40" xml:space="preserve" fill="#ff0094" stroke-width="1" font-family="&quot;Luckiest Guy&quot;, Sans Serif" font-weight="400" text-anchor="start"><tspan x="0" dy="0">Gramby's palette</tspan></text><path d="M262.40267,33.01534c0,-11.77061 20.00345,-27.85607 46.54717,-24.18637c14.50514,2.00536 20.47622,17.21885 27.78207,18.21651c8.91077,1.21682 21.07274,-11.66087 37.66915,-7.49064c11.22896,2.82154 8.52006,11.9821 8.52006,13.4605c0,13.71439 -26.97897,24.83209 -60.25924,24.83209c-33.28025,0 -60.25922,-11.11771 -60.25922,-24.83209zM322.80534,47.14205c9.66083,0 17.4925,-3.74558 17.4925,-8.36598c0,-4.6204 -7.83167,-8.36596 -17.4925,-8.36596c-9.66083,0 -17.49246,3.74556 -17.49246,8.36596c0,4.6204 7.83165,8.36598 17.49246,8.36598z" fill="#ffd99a" stroke-width="0"/><path d="M284.07336,33.07201c0,1.89015 -3.66044,3.42243 -8.17584,3.42243c-4.51538,0 -8.17584,-1.53228 -8.17584,-3.42243c0,-1.89015 3.66044,-3.42243 8.17584,-3.42243c4.51538,0 8.17584,1.53228 8.17584,3.42243z" fill="#ff0000" stroke-width="0"/><path d="M289.77744,21.66387c0,1.89017 -3.66046,3.42243 -8.17584,3.42243c-4.5154,0 -8.17582,-1.53228 -8.17582,-3.42243c0,-1.89017 3.66044,-3.42245 8.17582,-3.42245c4.5154,0 8.17584,1.53228 8.17584,3.42245z" fill="#4aff00" stroke-width="0"/><path d="M306.1291,14.43872c0,1.89017 -3.66044,3.42243 -8.17584,3.42243c-4.5154,0 -8.17584,-1.53228 -8.17584,-3.42243c0,-1.89017 3.66044,-3.42245 8.17584,-3.42245c4.5154,0 8.17584,1.53228 8.17584,3.42245z" fill="#0010ff" stroke-width="0"/></g></g></svg>